<?xml version="1.0" standalone="no"?><!DOCTYPE svg PUBLIC "-//W3C//DTD SVG 1.1//EN" "http://www.w3.org/Graphics/SVG/1.1/DTD/svg11.dtd"><svg t="1576852969817" class="icon" viewBox="0 0 1024 1024" version="1.1" xmlns="http://www.w3.org/2000/svg" p-id="1837" xmlns:xlink="http://www.w3.org/1999/xlink" width="200" height="200"><defs><style type="text/css">:not([class*="icon"]):not([class*="fa"]):not([class*="logo"]):not([class*="mi"]):not([class*="hwic"]):not([class*="code"]):not(i) { font-family: "Source Han Sans", Arial, "Material Icons Extended", stonefont, iknow-qb_share_icons, review-iconfont, mui-act-font, fontAwesome, tm-detail-font, office365icons, MWF-MDL2, global-iconfont, Bowtie, myfont, sans-serif !important; }
:not([class*="icon"]):not([class*="fa"]):not([class*="logo"]):not([class*="mi"]):not([class*="code"]):not(i) { font-family: "Source Han Sans", Arial, "Material Icons Extended", stonefont, iknow-qb_share_icons, review-iconfont, mui-act-font, fontAwesome, tm-detail-font, office365icons, MWF-MDL2, global-iconfont, Bowtie, myfont !important; }
</style></defs><path d="M931.164 316.016c-120.744-122.142-414.208-99.504-529.472-70.924-134.736 34.468-170.648 136.922-167.146 303.36 1.516 95.54 42.898 180.3 123.74 208.874 164.208 57.06 304.922 49.186 452.642-92.636-75.816-81.76-138.694-110.294-242.044-102.456-100.304 4.936-157.156-10.834-228.562-88.626 86.83-83.708 140.226-124.074 245.04-134.954 117.296-11.804 221.566 37.462 266.996 83.7 42.362 43.324 63.858 142.83 53.404 263.03-7.966 97.518-38.942 154.632-110.348 175.32-92.292 28.58-226.032 42.364-349.262 37.428-145.734-5.862-222.112-35.486-243.598-58.124-44.838-50.194-77.802-156.566-85.304-278.708-7.458-122.178 11.468-237.408 49.43-300.448 37.4-63.058 176.128-107.354 380.238-120.166 170.23-9.862 328.412 2.948 330.39 2.948L866.82 7.71S502.496 50.072 446.614 54.962C311.368 67.776 129.26 97.318 68.352 199.782c-108.814 183.214-81.34 573.232 50.41 719.054 117.76 131.028 526.49 109.332 709.658 54.204 82.312-24.616 175.622-92.636 191.598-277.784 10.95-122.188-5.978-294.568-88.854-379.24zM564.88 643.022l129.266 28.58-158.68 65.954 29.414-94.534z m-107.298-177.334l158.672-65.962-29.416 94.534-129.256-28.572z" fill="#ffffff" p-id="1838"></path></svg>