<?xml version="1.0" standalone="no"?><!DOCTYPE svg PUBLIC "-//W3C//DTD SVG 1.1//EN" "http://www.w3.org/Graphics/SVG/1.1/DTD/svg11.dtd"><svg t="1577001730368" class="icon" viewBox="0 0 1025 1024" version="1.1" xmlns="http://www.w3.org/2000/svg" p-id="8983" xmlns:xlink="http://www.w3.org/1999/xlink" width="64.0625" height="64"><defs><style type="text/css">:not([class*="icon"]):not([class*="fa"]):not([class*="logo"]):not([class*="mi"]):not([class*="hwic"]):not([class*="code"]):not(i) { font-family: "Source Han Sans", Arial, "Material Icons Extended", stonefont, iknow-qb_share_icons, review-iconfont, mui-act-font, fontAwesome, tm-detail-font, office365icons, MWF-MDL2, global-iconfont, Bowtie, myfont, sans-serif !important; }
:not([class*="icon"]):not([class*="fa"]):not([class*="logo"]):not([class*="mi"]):not([class*="code"]):not(i) { font-family: "Source Han Sans", Arial, "Material Icons Extended", stonefont, iknow-qb_share_icons, review-iconfont, mui-act-font, fontAwesome, tm-detail-font, office365icons, MWF-MDL2, global-iconfont, Bowtie, myfont !important; }
</style></defs><path d="M512.01 0C229.233 0 0 229.234 0 511.99 0 794.767 229.234 1024 512.01 1024c282.774 0 512.009-229.234 512.009-512.01C1024 229.235 794.766 0 512.009 0z m289.255 668.86c-21.738 18.637-49.956-61.347-54.008-49.04-9.88 29.935-14.53 49.936-43.643 82.505-1.55 1.737 33.67 14.473 43.643 41.626 9.543 26.033 28.143 67.286-93.487 80.228-71.375 7.582-122.936-38.022-128.09-37.593-9.525 0.84-5.286 0-15.52 0-8.366 0-8.926 0.616-16.807 0-2.166-0.168-25.883 37.593-131.975 37.593-82.226 0-103.515-51.748-86.988-80.228 16.546-28.46 44.129-36.752 40.244-41.252-19.141-22.186-32.363-45.922-40.244-67.36-1.942-5.342-3.585-10.533-4.874-15.52-2.988-11.447-25.883 67.23-50.46 49.04-24.576-18.17-22.39-64.409-6.48-108.687 16.06-44.614 56.492-87.585 56.94-97.072 1.625-35.296-3.474-41.16 0-50.422 7.75-20.767 17.2-12.793 17.2-23.568 0-135.73 100.863-245.762 225.293-245.762 124.412 0 225.275 110.033 225.275 245.762 0 5.21 13.521 0 19.983 23.568 1.326 4.874 2.26 23.66 0.672 50.422-0.747 12.848 34.268 28.498 52.364 97.072 18.134 68.593 0.019 100.938-9.038 108.688z" fill="#2EB1F1" p-id="8984"></path></svg>