<?xml version="1.0" standalone="no"?><!DOCTYPE svg PUBLIC "-//W3C//DTD SVG 1.1//EN" "http://www.w3.org/Graphics/SVG/1.1/DTD/svg11.dtd"><svg class="icon" width="200px" height="200.00px" viewBox="0 0 1024 1024" version="1.1" xmlns="http://www.w3.org/2000/svg"><path fill="#ffffff" d="M26.83904 988.501333a14.206293 14.206293 0 0 1-13.861547-17.3056l66.379094-297.3184a14.066347 14.066347 0 0 1 3.816106-6.95296L745.721173 4.375893a14.199467 14.199467 0 0 1 20.09088 0l226.583894 226.57024a14.206293 14.206293 0 0 1 0 20.094294L329.905493 913.626453a14.21312 14.21312 0 0 1-6.71744 3.761494L30.170453 988.095147a13.482667 13.482667 0 0 1-3.331413 0.406186z m79.353173-304.397653l-60.511573 271.02208 266.960213-64.423253L962.259627 240.994987l-206.493014-206.482774-649.5744 649.591467z"  /><path fill="#ffffff" d="M329.403733 896.68608a14.158507 14.158507 0 0 1-10.04544-4.16768l-212.404906-212.4288a14.199467 14.199467 0 0 1 0-20.09088 14.199467 14.199467 0 0 1 20.09088 0l212.404906 212.4288a14.199467 14.199467 0 0 1 0 20.09088 14.138027 14.138027 0 0 1-10.04544 4.16768z m546.27328-534.644053a14.165333 14.165333 0 0 1-10.04544-4.164267l-221.866666-221.893973a14.206293 14.206293 0 1 1 20.09088-20.094294l221.866666 221.893974a14.206293 14.206293 0 0 1-10.04544 24.25856zM267.35616 523.021653L15.07328 270.769493 261.748053 24.050347l252.28288 252.28288-246.674773 246.688426zM55.25504 270.769493l212.097707 212.0704 206.493013-206.506666-212.097707-212.10112-206.493013 206.537386z m711.13728 751.27808l-292.54656-292.502186 246.70208-246.7328 292.54656 292.549973-246.70208 246.685013z m-252.361387-292.5056l252.3648 252.32384 206.52032-206.506666-252.3648-252.368214-206.52032 206.55104z"  /><path fill="#ffffff" d="M113.75616 356.348587a14.209707 14.209707 0 0 1-10.04544-24.251734L193.594027 242.210133a14.206293 14.206293 0 1 1 20.094293 20.09088L123.8016 352.187733a14.15168 14.15168 0 0 1-10.04544 4.160854z"  /><path fill="#ffffff" d="M113.75616 356.348587a14.209707 14.209707 0 0 1-10.04544-24.251734L193.594027 242.210133a14.206293 14.206293 0 1 1 20.094293 20.09088L123.8016 352.187733a14.15168 14.15168 0 0 1-10.04544 4.160854zM189.433173 432.05632a14.199467 14.199467 0 0 1-10.04544-24.255147l89.883307-89.900373a14.206293 14.206293 0 1 1 20.09088 20.094293L199.4752 427.892053a14.155093 14.155093 0 0 1-10.042027 4.164267zM605.774507 834.215253a14.206293 14.206293 0 0 1-10.042027-24.255146l89.910613-89.89696a14.199467 14.199467 0 0 1 20.09088 0 14.199467 14.199467 0 0 1 0 20.09088l-89.914026 89.900373a14.15168 14.15168 0 0 1-10.04544 4.160853zM681.478827 909.90592a14.206293 14.206293 0 0 1-10.04544-24.255147l89.883306-89.883306a14.206293 14.206293 0 1 1 20.094294 20.09088l-89.883307 89.88672a14.165333 14.165333 0 0 1-10.048853 4.160853z"  /></svg>