<?xml version="1.0" standalone="no"?><!DOCTYPE svg PUBLIC "-//W3C//DTD SVG 1.1//EN" "http://www.w3.org/Graphics/SVG/1.1/DTD/svg11.dtd"><svg class="icon" width="200px" height="200.00px" viewBox="0 0 1024 1024" version="1.1" xmlns="http://www.w3.org/2000/svg"><path fill="#ffffff" d="M873.6 275.2h-160.64v-44.8a85.76 85.76 0 0 0-87.04-83.84H397.44A85.76 85.76 0 0 0 311.04 230.4v44.8H150.4a81.92 81.92 0 0 0-83.2 81.28v440.32a81.92 81.92 0 0 0 83.2 81.28h723.2a81.92 81.92 0 0 0 83.2-81.28V356.48a81.92 81.92 0 0 0-83.2-81.28zM512 791.68a229.76 229.76 0 1 1 229.12-229.76A229.76 229.76 0 0 1 512 791.68z m0-372.48a143.36 143.36 0 1 0 143.36 143.36A143.36 143.36 0 0 0 512 419.2z" /></svg>