<?xml version="1.0" standalone="no"?><!DOCTYPE svg PUBLIC "-//W3C//DTD SVG 1.1//EN" "http://www.w3.org/Graphics/SVG/1.1/DTD/svg11.dtd"><svg class="icon" width="64px" height="64.00px" viewBox="0 0 1024 1024" version="1.1" xmlns="http://www.w3.org/2000/svg"><path d="M512 512m-512 0a512 512 0 1 0 1024 0 512 512 0 1 0-1024 0Z" fill="#7DD733" /><path d="M772.973714 254.537143h-504.685714c-5.851429 0-11.702857 5.851429-11.702857 11.702857v504.978286c0 5.851429 5.851429 11.702857 11.702857 11.702857h61.732571c2.925714-14.628571 14.628571-23.405714 29.257143-23.405714s26.331429 11.702857 29.257143 23.405714h50.029714c2.925714-14.628571 14.628571-23.405714 29.257143-23.405714s26.331429 11.702857 29.257143 23.405714h50.029714c2.925714-14.628571 14.628571-23.405714 29.257143-23.405714s26.331429 11.702857 29.257143 23.405714h50.029714c2.925714-14.628571 14.628571-23.405714 29.257143-23.405714s26.331429 11.702857 29.257143 23.405714h61.732572c5.851429 0 11.702857-5.851429 11.702857-11.702857V266.24c-2.633143-5.851429-8.484571-11.702857-14.628572-11.702857z m-443.245714 108.544c0-5.851429 5.851429-11.702857 11.702857-11.702857h131.949714c5.851429 0 11.702857 5.851429 11.702858 11.702857v96.841143c0 5.851429-5.851429 11.702857-11.702858 11.702857h-131.657142c-5.851429 0-11.702857-5.851429-11.702858-11.702857V363.081143z m370.102857 299.300571H338.797714c-5.851429 0-11.702857-5.851429-11.702857-11.702857s5.851429-11.702857 11.702857-11.702857h361.033143c5.851429 0 11.702857 5.851429 11.702857 11.702857s-2.925714 11.702857-11.702857 11.702857z m0-96.841143H338.797714c-5.851429 0-11.702857-5.851429-11.702857-11.702857s5.851429-11.702857 11.702857-11.702857h361.033143c5.851429 0 11.702857 5.851429 11.702857 11.702857 0 8.777143-2.925714 11.702857-11.702857 11.702857z m0-93.915428H567.588571c-5.851429 0-11.702857-5.851429-11.702857-11.702857s5.851429-11.702857 11.702857-11.702857h132.242286c5.851429 0 11.702857 5.851429 11.702857 11.702857s-2.925714 11.702857-11.702857 11.702857z m0-96.841143H567.588571c-5.851429 0-11.702857-5.851429-11.702857-11.702857s5.851429-11.702857 11.702857-11.702857h132.242286c5.851429 0 11.702857 5.851429 11.702857 11.702857s-2.925714 11.702857-11.702857 11.702857z m0 0" fill="#FFFFFF" /></svg>