<?xml version="1.0" standalone="no"?><!DOCTYPE svg PUBLIC "-//W3C//DTD SVG 1.1//EN" "http://www.w3.org/Graphics/SVG/1.1/DTD/svg11.dtd"><svg class="icon" width="200px" height="200.00px" viewBox="0 0 1024 1024" version="1.1" xmlns="http://www.w3.org/2000/svg"><path fill="#ffffff" d="M960 96H57.6C25.6 96 0 115.2 0 147.2v576c0 25.6 25.6 51.2 51.2 51.2H960c25.6 0 51.2-25.6 51.2-51.2v-576c0-32-25.6-51.2-51.2-51.2z m-12.8 531.2H64V153.6h889.6v473.6zM249.6 262.4a0.9 0.9 0 1 0 115.2 0 0.9 0.9 0 1 0-115.2 0zM537.6 396.8h243.2v166.4H537.6V396.8zM537.6 230.4h243.2v19.2H537.6v-19.2zM537.6 268.8h243.2V288H537.6v-19.2zM236.8 396.8H480V416H236.8v-19.2zM236.8 435.2H480v19.2H236.8v-19.2zM236.8 467.2H480v19.2H236.8v-19.2zM236.8 505.6H480v19.2H236.8v-19.2zM236.8 544H480v19.2H236.8V544zM678.4 876.8H608l-12.8-134.4H416l-12.8 134.4h-70.4c-25.6 0-44.8 32-44.8 57.6h428.8c6.4-19.2-12.8-57.6-38.4-57.6z" /></svg>