<?xml version="1.0" standalone="no"?><!DOCTYPE svg PUBLIC "-//W3C//DTD SVG 1.1//EN" "http://www.w3.org/Graphics/SVG/1.1/DTD/svg11.dtd"><svg class="icon" width="64px" height="62.95px" viewBox="0 0 1041 1024" version="1.1" xmlns="http://www.w3.org/2000/svg"><path d="M513.723733 512m-512 0a512 512 0 1 0 1024 0 512 512 0 1 0-1024 0Z" fill="#7ED321" /><path d="M699.904 552.379733c-14.506667 0-26.350933-11.946667-26.350933-26.743466 0-14.7456 11.8272-26.6752 26.350933-26.6752 14.523733 0 26.350933 11.946667 26.350933 26.6752 0 14.813867-11.8272 26.743467-26.350933 26.743466m-135.543467 0c-14.506667 0-26.350933-11.946667-26.350933-26.743466 0-14.7456 11.8272-26.6752 26.350933-26.6752 14.523733 0 26.350933 11.946667 26.350934 26.6752 0 14.813867-11.8272 26.743467-26.350934 26.743466m256.5632 38.007467c0-86.4256-76.765867-157.184-174.045866-163.293867A250.5728 250.5728 0 0 0 633.173333 426.666667c-103.697067 0-187.733333 73.3184-187.733333 163.720533 0 13.636267 1.9456 26.8288 5.5808 39.441067 20.1728 71.3728 94.071467 124.279467 182.152533 124.279466 29.986133 0 58.2656-6.0928 83.3536-17.015466l42.154667 28.859733s11.2128 7.867733 10.120533-7.2704l-11.912533-45.226667c39.2704-29.952 64.017067-73.966933 64.017067-123.067733" fill="#FFFFFF" /><path d="M342.869333 410.914133c-14.8992 0-27.0336-11.946667-27.0336-26.709333 0-14.848 12.117333-26.794667 27.050667-26.794667 14.984533 0 27.0336 11.963733 27.0336 26.794667 0 14.762667-12.049067 26.709333-27.0336 26.709333m170.325333-53.504c14.916267 0 27.050667 11.963733 27.050667 26.794667 0 14.762667-12.1344 26.709333-27.050667 26.709333-15.0016 0-27.050667-11.946667-27.050666-26.709333 0-14.848 12.049067-26.794667 27.050666-26.794667m124.740267 60.279467c4.164267 0 8.226133 0.170667 12.305067 0.341333C634.385067 326.4 541.6448 256 429.568 256 306.3808 256 206.506667 341.060267 206.506667 445.8496c0 58.4192 31.0272 110.6432 79.752533 145.493333l-16.469333 60.808534s-5.632 20.1728 15.701333 11.093333l61.44-41.028267a255.317333 255.317333 0 0 0 82.602667 13.568c2.525867 0 4.949333-0.170667 7.3728-0.170666a152.132267 152.132267 0 0 1-5.461334-40.277334c0-97.928533 92.672-177.646933 206.4896-177.646933" fill="#FFFFFF" /></svg>